<?xml version="1.0" standalone="no"?>
<!DOCTYPE svg PUBLIC "-//W3C//DTD SVG 20010904//EN"
 "http://www.w3.org/TR/2001/REC-SVG-20010904/DTD/svg10.dtd">
<svg version="1.0" xmlns="http://www.w3.org/2000/svg"
 width="24.000000pt" height="24.000000pt" viewBox="0 0 24.000000 24.000000"
 preserveAspectRatio="xMidYMid meet">
<metadata>
Created by potrace 1.10, written by Peter Selinger 2001-2011
</metadata>
<g transform="translate(0.000000,24.000000) scale(0.100000,-0.100000)"
fill="#7bc6cc" stroke="none">
<path d="M30 170 c-31 -60 -24 -84 23 -88 32 -3 38 -7 37 -25 -4 -49 0 -51 40
-12 40 39 41 41 38 100 l-3 60 -57 3 -57 3 -21 -41z"/>
<path d="M190 150 c0 -53 2 -60 20 -60 18 0 20 7 20 60 0 53 -2 60 -20 60 -18
0 -20 -7 -20 -60z"/>
</g>
</svg>
