<?xml version="1.0" standalone="no"?>
<!DOCTYPE svg PUBLIC "-//W3C//DTD SVG 20010904//EN"
 "http://www.w3.org/TR/2001/REC-SVG-20010904/DTD/svg10.dtd">
<svg version="1.0" xmlns="http://www.w3.org/2000/svg"
 width="24.000000pt" height="24.000000pt" viewBox="0 0 24.000000 24.000000"
 preserveAspectRatio="xMidYMid meet">
<metadata>
Created by potrace 1.10, written by Peter Selinger 2001-2011
</metadata>
<g transform="translate(0.000000,24.000000) scale(0.100000,-0.100000)"
fill="#e6f1ed" stroke="none">
<path d="M24 197 c-3 -8 -4 -47 -2 -88 l3 -74 48 -3 c28 -2 47 1 47 7 0 6 -18
11 -40 11 l-40 0 0 70 0 70 40 0 c22 0 40 5 40 10 0 16 -90 12 -96 -3z"/>
<path d="M160 162 c0 -4 5 -13 12 -20 9 -9 0 -12 -40 -12 -29 0 -52 -4 -52
-10 0 -5 23 -10 51 -10 45 0 50 -2 39 -15 -23 -28 0 -30 27 -2 l27 26 -24 26
c-23 25 -40 32 -40 17z"/>
</g>
</svg>
