<?xml version="1.0" standalone="no"?>
<!DOCTYPE svg PUBLIC "-//W3C//DTD SVG 20010904//EN"
 "http://www.w3.org/TR/2001/REC-SVG-20010904/DTD/svg10.dtd">
<svg version="1.0" xmlns="http://www.w3.org/2000/svg"
 width="24.000000pt" height="24.000000pt" viewBox="0 0 24.000000 24.000000"
 preserveAspectRatio="xMidYMid meet">
<metadata>
Created by potrace 1.10, written by Peter Selinger 2001-2011
</metadata>
<g transform="translate(0.000000,24.000000) scale(0.100000,-0.100000)"
fill="#51a380" stroke="none">
<path d="M73 203 c-48 -9 -20 -23 47 -23 72 0 93 13 39 24 -33 6 -49 6 -86 -1z"/>
<path d="M62 103 l3 -68 55 0 55 0 3 68 3 67 -61 0 -61 0 3 -67z m98 -3 l0
-50 -40 0 -40 0 0 50 0 50 40 0 40 0 0 -50z"/>
</g>
</svg>
