<?xml version="1.0" standalone="no"?>
<!DOCTYPE svg PUBLIC "-//W3C//DTD SVG 20010904//EN"
 "http://www.w3.org/TR/2001/REC-SVG-20010904/DTD/svg10.dtd">
<svg version="1.0" xmlns="http://www.w3.org/2000/svg"
 width="24.000000pt" height="24.000000pt" viewBox="0 0 24.000000 24.000000"
 preserveAspectRatio="xMidYMid meet">
<metadata>
Created by potrace 1.10, written by Peter Selinger 2001-2011
</metadata>
<g transform="translate(0.000000,24.000000) scale(0.100000,-0.100000)"
fill="#e6f1ed" stroke="none">
<path d="M110 164 c0 -39 -2 -45 -14 -35 -26 21 -26 -5 -1 -29 l25 -23 25 23
c25 24 25 50 -1 29 -12 -10 -14 -4 -14 35 0 25 -4 46 -10 46 -5 0 -10 -21 -10
-46z"/>
<path d="M32 78 l3 -43 85 0 85 0 3 43 c2 25 -1 42 -7 42 -6 0 -11 -16 -11
-35 l0 -35 -70 0 -70 0 0 35 c0 19 -5 35 -11 35 -6 0 -9 -17 -7 -42z"/>
</g>
</svg>
