<?xml version="1.0" standalone="no"?>
<!DOCTYPE svg PUBLIC "-//W3C//DTD SVG 20010904//EN"
 "http://www.w3.org/TR/2001/REC-SVG-20010904/DTD/svg10.dtd">
<svg version="1.0" xmlns="http://www.w3.org/2000/svg"
 width="24.000000pt" height="24.000000pt" viewBox="0 0 24.000000 24.000000"
 preserveAspectRatio="xMidYMid meet">
<metadata>
Created by potrace 1.10, written by Peter Selinger 2001-2011
</metadata>
<g transform="translate(0.000000,24.000000) scale(0.100000,-0.100000)"
fill="#51a380" stroke="none">
<path d="M50 190 c-39 -39 -11 -110 43 -110 29 0 67 39 67 68 0 29 -34 62 -65
62 -14 0 -34 -9 -45 -20z m74 -16 c9 -8 16 -22 16 -29 0 -18 -27 -45 -45 -45
-18 0 -45 27 -45 45 0 7 7 21 16 29 8 9 22 16 29 16 7 0 21 -7 29 -16z"/>
<path d="M140 92 c0 -14 49 -56 57 -49 3 4 -4 18 -17 32 -24 25 -40 32 -40 17z"/>
</g>
</svg>
